<?xml version="1.0" encoding="utf-8"?>
<!-- Generator: Adobe Illustrator 21.0.2, SVG Export Plug-In . SVG Version: 6.00 Build 0)  -->
<svg version="1.1" id="レイヤー_1" xmlns="http://www.w3.org/2000/svg" xmlns:xlink="http://www.w3.org/1999/xlink" x="0px"
	 y="0px" viewBox="0 0 50 50" style="enable-background:new 0 0 50 50;" xml:space="preserve">
<style type="text/css">
	.st0{fill:#FFD51A;}
	.st1{fill:none;stroke:#FFEE33;stroke-width:0.9837;stroke-miterlimit:10;}
	.st2{fill:#FFEE33;}
	.st3{fill:#FFFFFF;}
	.st4{fill:#AAAAAA;}
	.st5{fill:none;stroke:#CCCCCC;stroke-width:0.7916;stroke-miterlimit:10;}
	.st6{fill:#CCCCCC;}
	.st7{fill:#816D46;}
	.st8{fill:none;stroke:#9B8760;stroke-width:0.5808;stroke-miterlimit:10;}
	.st9{fill:#9B8760;}
	.st10{font-family:'HeiseiMaruGoStd-W4-90ms-RKSJ-H';}
	.st11{font-size:15px;}
</style>
<path class="st0" d="M10.5,40.5c3.5,1,8.3,1.9,14,2c6.2,0.1,11.4-1,15-2c0-0.1,0.4-2,0.9-4.6c1.3-6.3,3.4-17,4.1-20.4c-4,2-8,4-12,6
	c-2.3-4.7-4.7-9.3-7-14c-2.7,4.7-5.3,9.3-8,14c-4-2-8-4-12-6c1.3,6.7,2.7,13.3,4,20C9.8,37.2,10.2,38.8,10.5,40.5z"/>
<path class="st1" d="M10,35.5c3.9,1,9.2,2.1,15.5,2c5.9,0,10.8-1,14.5-2"/>
<circle class="st2" cx="44" cy="15" r="3.5"/>
<circle class="st2" cx="25.5" cy="8" r="3.5"/>
<circle class="st2" cx="6" cy="15" r="3.5"/>
<path class="st2" d="M40.1,36l0.3-0.1l0.2-1.1c0,0-0.4,0.2-0.8,0.3L40.1,36z"/>
<path class="st2" d="M9.6,35.9c0.1,0,0.2,0.1,0.3,0.1c0.1-0.3,0.2-0.6,0.3-0.9c-0.1,0-0.1,0-0.2,0c-0.2-0.1-0.4-0.1-0.6-0.2
	C9.4,35.1,9.5,35.5,9.6,35.9z"/>
<ellipse class="st3" cx="4.5" cy="13.3" rx="1.2" ry="1"/>
<ellipse class="st3" cx="24.3" cy="6.1" rx="1.2" ry="1"/>
<ellipse class="st3" cx="43.2" cy="12.9" rx="1.2" ry="1"/>
<text transform="matrix(1 0 0 1 20.9704 33.3066)" class="st3 st10 st11">1</text>
</svg>
