<?xml version="1.0" encoding="utf-8"?>
<!-- Generator: Adobe Illustrator 21.0.2, SVG Export Plug-In . SVG Version: 6.00 Build 0)  -->
<svg version="1.1" id="レイヤー_1" xmlns="http://www.w3.org/2000/svg" xmlns:xlink="http://www.w3.org/1999/xlink" x="0px"
	 y="0px" viewBox="0 0 50 50" style="enable-background:new 0 0 50 50;" xml:space="preserve">
<style type="text/css">
	.st0{fill:#FFD51A;}
	.st1{fill:none;stroke:#FFEE33;stroke-width:0.9837;stroke-miterlimit:10;}
	.st2{fill:#FFEE33;}
	.st3{fill:#FFFFFF;}
	.st4{fill:#AAAAAA;}
	.st5{fill:none;stroke:#CCCCCC;stroke-width:0.7916;stroke-miterlimit:10;}
	.st6{fill:#CCCCCC;}
	.st7{fill:#816D46;}
	.st8{fill:none;stroke:#9B8760;stroke-width:0.5808;stroke-miterlimit:10;}
	.st9{fill:#9B8760;}
	.st10{font-family:'HeiseiMaruGoStd-W4-90ms-RKSJ-H';}
	.st11{font-size:8.8567px;}
</style>
<path class="st7" d="M16.3,42.4c2.1,0.6,4.9,1.1,8.3,1.2c3.7,0,6.7-0.6,8.9-1.2c0-0.1,0.2-1.2,0.5-2.7c0.7-3.7,2-10.1,2.4-12
	c-2.4,1.2-4.7,2.4-7.1,3.5c-1.4-2.8-2.8-5.5-4.1-8.3c-1.6,2.8-3.1,5.5-4.7,8.3c-2.4-1.2-4.7-2.4-7.1-3.5c0.8,3.9,1.6,7.9,2.4,11.8
	C15.9,40.4,16.1,41.4,16.3,42.4z"/>
<path class="st8" d="M16,39.4c2.3,0.6,5.4,1.2,9.1,1.2c3.5,0,6.4-0.6,8.6-1.2"/>
<circle class="st9" cx="36.1" cy="27.3" r="2.1"/>
<circle class="st9" cx="25.2" cy="23.2" r="2.1"/>
<circle class="st9" cx="13.7" cy="27.3" r="2.1"/>
<path class="st9" d="M33.8,39.7l0.2,0l0.1-0.7c0,0-0.2,0.1-0.5,0.2L33.8,39.7z"/>
<path class="st9" d="M15.8,39.7c0.1,0,0.1,0,0.2,0.1c0.1-0.2,0.1-0.4,0.2-0.6c0,0-0.1,0-0.1,0c-0.1,0-0.2-0.1-0.3-0.1
	C15.7,39.2,15.7,39.4,15.8,39.7z"/>
<ellipse class="st3" cx="12.8" cy="26.3" rx="0.7" ry="0.6"/>
<ellipse class="st3" cx="24.5" cy="22.1" rx="0.7" ry="0.6"/>
<ellipse class="st3" cx="35.6" cy="26.1" rx="0.7" ry="0.6"/>
<text transform="matrix(1 0 0 1 22.4916 38.9336)" class="st3 st10 st11">3</text>
</svg>
