<?xml version="1.0" encoding="utf-8"?>
<!-- Generator: Adobe Illustrator 21.0.2, SVG Export Plug-In . SVG Version: 6.00 Build 0)  -->
<svg version="1.1" id="レイヤー_1" xmlns="http://www.w3.org/2000/svg" xmlns:xlink="http://www.w3.org/1999/xlink" x="0px"
	 y="0px" viewBox="0 0 50 50" style="enable-background:new 0 0 50 50;" xml:space="preserve">
<style type="text/css">
	.st0{fill:#FFD51A;}
	.st1{fill:none;stroke:#FFEE33;stroke-width:0.9837;stroke-miterlimit:10;}
	.st2{fill:#FFEE33;}
	.st3{fill:#FFFFFF;}
	.st4{fill:#AAAAAA;}
	.st5{fill:none;stroke:#CCCCCC;stroke-width:0.7916;stroke-miterlimit:10;}
	.st6{fill:#CCCCCC;}
	.st7{fill:#816D46;}
	.st8{fill:none;stroke:#9B8760;stroke-width:0.5808;stroke-miterlimit:10;}
	.st9{fill:#9B8760;}
	.st10{font-family:'HeiseiMaruGoStd-W4-90ms-RKSJ-H';}
	.st11{font-size:12.0696px;}
</style>
<path class="st4" d="M14.4,42c2.8,0.8,6.7,1.6,11.3,1.6c5,0,9.1-0.8,12.1-1.6c0-0.1,0.3-1.6,0.7-3.7c1-5,2.7-13.7,3.3-16.4
	c-3.2,1.6-6.4,3.2-9.7,4.8c-1.9-3.8-3.8-7.5-5.6-11.3c-2.1,3.8-4.3,7.5-6.4,11.3c-3.2-1.6-6.4-3.2-9.7-4.8
	c1.1,5.4,2.1,10.7,3.2,16.1C13.8,39.3,14.1,40.7,14.4,42z"/>
<path class="st5" d="M14,38c3.1,0.8,7.4,1.7,12.5,1.6c4.7,0,8.7-0.8,11.7-1.6"/>
<circle class="st6" cx="41.3" cy="21.5" r="2.8"/>
<circle class="st6" cx="26.4" cy="15.8" r="2.8"/>
<circle class="st6" cx="10.7" cy="21.5" r="2.8"/>
<path class="st6" d="M38.2,38.3l0.2-0.1l0.2-0.9c0,0-0.3,0.2-0.6,0.2L38.2,38.3z"/>
<path class="st6" d="M13.6,38.3c0.1,0,0.2,0.1,0.2,0.1c0.1-0.3,0.1-0.5,0.2-0.8c-0.1,0-0.1,0-0.2,0c-0.2,0-0.3-0.1-0.5-0.2
	C13.5,37.7,13.5,38,13.6,38.3z"/>
<ellipse class="st3" cx="9.5" cy="20.1" rx="1" ry="0.8"/>
<ellipse class="st3" cx="25.5" cy="14.3" rx="1" ry="0.8"/>
<ellipse class="st3" cx="40.6" cy="19.8" rx="1" ry="0.8"/>
<text transform="matrix(1 0 0 1 22.3834 35.4386)" class="st3 st10 st11">2</text>
</svg>
